General
Complete name                    : E:\Media (E)\Music Videos\720p\Breaking Benjamin - I Will Not Bow (Blu Ray).mp4
Format                           : MPEG-4
Format profile                   : Base Media / Version 2
Codec ID                         : mp42
File size                        : 56.4 MiB
Duration                         : 3mn 49s
Overall bit rate                 : 2 064 Kbps
Encoded date                     : UTC 2010-02-04 20:45:27
Tagged date                      : UTC 2010-02-04 20:45:27
gsst                             : 0
gstd                             : 229645
gssd                             : B4A7D0BC2HH1290938813453086
gshh                             :

Video
ID                               : 2
Format                           : AVC
Format/Info                      : Advanced Video Codec
Format profile                   : High@L3.1
Format settings, CABAC           : Yes
Format settings, ReFrames        : 3 frames
Codec ID                         : avc1
Codec ID/Info                    : Advanced Video Coding
Duration                         : 3mn 49s
Bit rate mode                    : Variable
Bit rate                         : 1 939 Kbps
Maximum bit rate                 : 6 137 Kbps
Width                            : 1 280 pixels
Height                           : 720 pixels
Display aspect ratio             : 16:9
Frame rate mode                  : Constant
Frame rate                       : 30.000 fps
Color space                      : YUV
Chroma subsampling               : 4:2:0
Bit depth                        : 8 bits
Scan type                        : Progressive
Bits/(Pixel*Frame)               : 0.070
Stream size                      : 53.0 MiB (94%)
Title                            : (C) 2007 Google Inc. v08.13.2007.
Encoded date                     : UTC 2010-02-04 20:45:27
Tagged date                      : UTC 2010-02-04 20:45:30

Audio
ID                               : 1
Format                           : AAC
Format/Info                      : Advanced Audio Codec
Format version                   : Version 4
Format profile                   : LC
Format settings, SBR             : No
Codec ID                         : 40
Duration                         : 3mn 49s
Bit rate mode                    : Variable
Bit rate                         : 122 Kbps
Maximum bit rate                 : 229 Kbps
Channel(s)                       : 2 channels
Channel positions                : Front: L R
Sampling rate                    : 44.1 KHz
Stream size                      : 3.34 MiB (6%)
Title                            : (C) 2007 Google Inc. v08.13.2007.
Encoded date                     : UTC 2010-02-04 20:45:27
Tagged date                      : UTC 2010-02-04 20:45:30